<?xml version="1.0" encoding="UTF-8"?>
<svg id="Layer_1" data-name="Layer 1" xmlns="http://www.w3.org/2000/svg" xmlns:xlink="http://www.w3.org/1999/xlink" viewBox="0 0 728.71 141.43">
  <defs>
    <style>
      .cls-1 {
        fill: #fdedcb;
      }

      .cls-2 {
        fill: #82aa89;
      }

      .cls-3 {
        fill: #52312d;
      }

      .cls-4 {
        fill: #19468d;
      }

      .cls-5 {
        fill: #fbdc95;
      }

      .cls-6 {
        fill: none;
      }

      .cls-7 {
        fill: #007940;
      }

      .cls-8 {
        fill: #3a8a58;
      }

      .cls-9 {
        fill: #60413c;
      }

      .cls-10 {
        fill: #fce7ba;
      }

      .cls-11 {
        fill: #f5bd17;
      }

      .cls-12 {
        fill: #f9ce68;
      }

      .cls-13 {
        clip-path: url(#clippath);
      }
    </style>
    <clipPath id="clippath">
      <path class="cls-6" d="M15.49,2.77h8v2.93h12.27v3.2h4.79v8h32.97l.66,2.94h9.87l30.68,81.09v6.67h-3.47v10.4h-16.72l-18.5,14.4v4.54l-2.37-1.81-11.77-4.32-2.6-2.37s-9.06.93-10.63-1.28c-1.57-2.21-5.14-5.16-4.91-5.96-.83.03-2.74-.4-2.74-.4l-.15-2.42-5.46-11.42-.4-2.71s-4.61-2.41-6.68-4.2c-.37-.29-1.59-.99-1.82-2.83-.38-.67-1.2-1.62-3.03-1.88-1.83-.26-2.84-.33-3.73-1.96l-.9-.58-2.31-2.53h-1.6l-1.08-2.21-1.58-.45.52-2.78,2.42-2.82-.8-2.67,1.18-.7-.11-75.86Z"/>
    </clipPath>
  </defs>
  <g>
    <g>
      <path class="cls-4" d="M135.57,98.51h-9.19l-7.68-33.48h9.49c1.25,7.23,2.56,14.51,3.16,21.83.15-1.76.3-3.46.5-5.22.25-1.86.55-3.71.9-5.52l2.11-11.09h9.84l-9.13,33.48Z"/>
      <path class="cls-4" d="M150.27,98.51v-33.48h16.77v7.88h-7.73v4.87h6.93v7.58h-6.93v5.12h7.73v8.03h-16.77Z"/>
      <path class="cls-4" d="M187.62,98.58c-2.36-6.37-4.97-12.7-6.83-19.27.25,3.56.55,7.18.55,10.74v8.53h-8.63v-33.48h8.63l4.52,11.75c1.05,2.76,1.91,5.62,2.76,8.43-.5-4.12-1-8.18-1-12.35v-7.83h8.63v33.48h-8.63Z"/>
      <path class="cls-4" d="M217.23,73.06v25.45h-9.03v-25.45h-4.97v-8.03h18.97v8.03h-4.97Z"/>
      <path class="cls-4" d="M250.45,88.72c0,3.36-.75,5.57-3.36,7.78-2.16,1.86-4.77,2.61-7.58,2.61-3.06,0-6.17-.85-8.48-2.91-2.61-2.31-3.26-5.37-3.26-8.73v-22.44h9.03v21.63c0,1.71.05,3.96,2.31,3.96s2.31-2.26,2.31-3.96v-21.63h9.03v23.69Z"/>
      <path class="cls-4" d="M270.87,98.51c-1.71-4.62-3.46-9.24-5.12-13.9.1,1.46.15,2.96.15,4.42v9.49h-9.03v-33.48h9.24c2.31,0,4.82.25,6.98,1.16,4.01,1.71,6.02,5.82,6.02,10.04,0,3.92-1.56,6.73-5.17,8.38l6.73,13.9h-9.79ZM266.5,80.54c2.31,0,3.61-2.11,3.61-4.22,0-2.71-1.66-3.76-4.22-3.76v7.98h.6Z"/>
      <path class="cls-4" d="M301.58,98.51l-.7-4.27h-6.07l-.75,4.27h-9.34l8.08-33.48h11.04l7.08,33.48h-9.34ZM299.82,87.12c-.7-4.67-1.31-9.34-1.71-14.05-.2,1.56-.35,3.16-.55,4.72-.45,3.11-.95,6.22-1.55,9.34h3.81Z"/>
    </g>
    <path class="cls-7" d="M330.16,36.49c-.09,0-.21.03-.36.08-1.23.45-2.49.84-3.81,1.17-1.31.33-2.61.59-3.91.78.52-1.21,1.09-2.39,1.71-3.55.62-1.16,1.26-2.3,1.92-3.44.48-.85.98-1.69,1.5-2.52.52-.84.99-1.7,1.42-2.59.43-.89.79-1.81,1.06-2.76.28-.95.41-1.96.41-3.03,0-.67-.1-1.17-.28-1.5-.19-.33-.46-.49-.8-.49-.31,0-.68.15-1.11.44-.43.29-.9.73-1.4,1.32-1.12,1.31-2.17,2.71-3.16,4.19-.98,1.48-1.9,3.02-2.74,4.61-.85,1.59-1.63,3.21-2.34,4.85-.61,1.41-1.16,2.81-1.67,4.19-.27.09-.53.17-.76.24-.27.08-.52.15-.76.22-.2.06-.41.09-.62.13-.3-.02-.61-.05-.91-.05-.25,0-.52.03-.79.07-.26-.04-.52-.1-.76-.18-.47-.16-.91-.37-1.32-.63-.41-.27-.8-.58-1.16-.93-.36-.35-.7-.73-1.01-1.13-.24.02-.43.16-.56.41-.13.26-.19.51-.19.75,0,.38.13.74.38,1.09.25.35.58.66,1,.96-.03,1.3-.28,2.71-.75,4.23-.47,1.52-1.1,3.03-1.89,4.51-.79,1.49-1.73,2.9-2.82,4.23-1.09,1.33-2.26,2.45-3.52,3.37-.14-.79-.21-1.54-.21-2.25,0-1,.1-2,.31-3,.21-1,.5-1.97.88-2.91.38-.94.84-1.84,1.37-2.69.53-.85,1.12-1.64,1.76-2.37.36-.41.7-.79,1.01-1.11.31-.33.58-.66.8-1,.22-.34.4-.71.52-1.13.12-.41.18-.91.18-1.5,0-.1-.02-.33-.05-.67-.03-.35-.11-.7-.23-1.06-.12-.36-.29-.69-.5-.97-.22-.28-.51-.43-.89-.43-.21,0-.47.1-.79.28-.32.19-.65.42-1,.69-.35.27-.68.55-1.01.85-.33.3-.6.57-.8.79-.88.93-1.69,1.95-2.42,3.04-.73,1.1-1.37,2.25-1.9,3.47-.54,1.22-.95,2.48-1.24,3.78-.29,1.3-.44,2.61-.44,3.92,0,.55.06,1.17.18,1.85.12.68.34,1.32.65,1.93.31.6.73,1.11,1.26,1.53.53.41,1.2.62,2.03.62.95,0,1.87-.3,2.77-.89.9-.6,1.74-1.37,2.54-2.32.79-.95,1.52-2.03,2.17-3.24.66-1.21,1.22-2.43,1.7-3.65.47-1.23.85-2.4,1.11-3.52.11-.44.18-.86.25-1.25.37.15.82.28,1.36.36.58.09,1.2.14,1.85.16.66.02,1.24.03,1.76.03-.45,1.55-.86,3.17-1.24,4.84-.38,1.67-.72,3.36-1.01,5.05-.29,1.69-.52,3.37-.69,5.04-.16,1.67-.25,3.27-.25,4.8,0,1.31.1,2.61.31,3.88.21,1.28.59,2.53,1.14,3.75.07.16.18.38.32.67.15.29.31.58.49.87.18.28.37.53.57.75.2.22.39.32.58.32.33,0,.65-.1.96-.28.31-.19.6-.43.88-.71.28-.28.53-.59.75-.92.22-.33.43-.63.62-.91,1.64-2.49,2.88-5.19,3.72-8.1.84-2.92,1.26-5.87,1.26-8.85,0-1.88-.19-3.73-.57-5.54-.38-1.81-.93-3.56-1.66-5.23.43-.07,1.01-.18,1.73-.34.72-.16,1.46-.34,2.21-.54.75-.21,1.45-.43,2.11-.67.66-.24,1.14-.49,1.45-.75.22-.17.44-.38.65-.62.21-.24.39-.5.56-.78.16-.28.29-.55.39-.83.09-.28.14-.54.14-.8,0-.29-.12-.44-.36-.44ZM310.24,39.96c0-.05,0-.09-.01-.14.04.02.07.03.11.04-.04.03-.07.07-.1.1ZM321.36,47.79c.24,1.54.36,3.02.36,4.41,0,1.67-.14,3.33-.43,4.96-.28,1.63-.69,3.24-1.2,4.82-.52,1.58-1.14,3.13-1.85,4.65-.72,1.52-1.51,3-2.39,4.45,0-2.3.09-4.62.27-6.98.18-2.36.45-4.71.82-7.05.36-2.35.82-4.67,1.36-6.96.54-2.3,1.19-4.53,1.93-6.71.52,1.4.9,2.87,1.14,4.41Z"/>
    <g>
      <path class="cls-4" d="M128.84,56.94c-2.21.91-3.63,1.29-6.07,1.29-10.89,0-15.54-9.29-15.54-18.42,0-9.83,5.33-18.69,16.73-18.69,2.04,0,3.18.16,5.05.91v10.2c-1.36-1.34-2.67-2.15-4.71-2.15-5.39,0-6.64,5.48-6.64,9.56s1.25,9.24,6.47,9.24c2.21,0,3.74-.97,5.33-2.31l-.62,10.36Z"/>
      <path class="cls-4" d="M150.68,58.23c-4.03,0-7.77-1.88-10.32-4.78-3.29-3.76-4.25-9.4-4.25-14.12,0-8.43,4.14-18.2,14.52-18.2s14.24,9.88,14.24,18.2-3.57,18.9-14.18,18.9ZM150.56,30.15c-3.52,0-3.86,7.2-3.86,9.5s.23,9.5,3.74,9.5,3.8-7.14,3.8-9.45-.17-9.56-3.69-9.56Z"/>
      <path class="cls-4" d="M196.95,47.12c0,3.6-.85,5.96-3.8,8.32-2.44,1.99-5.39,2.79-8.57,2.79-3.46,0-6.98-.91-9.59-3.11-2.95-2.47-3.69-5.75-3.69-9.34v-24h10.21v23.14c0,1.83.06,4.24,2.61,4.24s2.61-2.42,2.61-4.24v-23.14h10.21v25.35Z"/>
      <path class="cls-4" d="M222.7,57.59c-2.67-6.82-5.62-13.59-7.71-20.62.28,3.81.63,7.68.63,11.49v9.13h-9.76V21.77h9.76l5.1,12.57c1.19,2.95,2.16,6.01,3.12,9.02-.57-4.4-1.13-8.75-1.13-13.21v-8.38h9.76v35.82h-9.76Z"/>
      <path class="cls-4" d="M254.58,30.36v27.22h-10.21v-27.22h-5.62v-8.59h21.44v8.59h-5.62Z"/>
      <path class="cls-4" d="M283.45,42.45v15.14h-10.21v-15.14l-9.42-20.67h10.66c1.25,3.65,2.61,7.3,3.57,11.06,1.08-3.71,2.27-7.41,3.57-11.06h10.55l-8.74,20.67Z"/>
    </g>
  </g>
  <g>
    <g class="cls-13">
      <g>
        <polygon class="cls-1" points="13.6 1.01 79.51 1.52 105.57 72.5 13.02 71.92 13.6 1.01"/>
        <g>
          <circle class="cls-10" cx="54.68" cy="67.69" r="32.34"/>
          <circle class="cls-5" cx="54.68" cy="67.69" r="24.57"/>
          <circle class="cls-12" cx="54.68" cy="67.69" r="20.19"/>
          <circle class="cls-11" cx="54.68" cy="67.69" r="16.88"/>
        </g>
        <g>
          <path class="cls-3" d="M0,59.75c1.5-2.08,3.03-4.13,4.59-6.17,2.49-3.25,5.06-7.17,8.32-9.7,1.38-1.07,4.44-1.08,5.75.07,3.52,3.08,5.81,5.86,8.93,9.26,1.68,1.83,3.74,3.28,5.62,4.92.26.23,2.12,2.24,2.47,2.16,0,0-17.03,4.15-17.03,4.15L0,59.75Z"/>
          <path class="cls-9" d="M17.14,62.81l13.3-9.98s2.96-2.62,5.22-1.7c3.41,1.38,17.46,16.82,17.46,16.82l-8.62.32-27.36-5.46Z"/>
        </g>
        <polygon class="cls-4" points="109.05 81.88 109.05 67.88 12.5 67.88 109.05 81.88"/>
        <polygon class="cls-2" points="106.02 77.57 25.53 92.65 119.31 109.14 106.02 77.57"/>
        <polygon class="cls-2" points=".79 58.91 96.11 79.49 25.78 91.97 .65 86.91 .79 58.91"/>
        <g>
          <polygon class="cls-8" points="25.6 92.04 106.02 77.57 37.62 94.38 25.6 92.04"/>
          <polygon class="cls-8" points="48.21 96.55 60.89 98.95 106.02 77.57 48.21 96.55"/>
          <polygon class="cls-8" points="73.45 101.45 86.54 103.52 106.02 77.57 73.45 101.45"/>
          <polygon class="cls-8" points="101.64 106.62 120.28 109.51 106.02 77.57 101.64 106.62"/>
        </g>
        <polygon class="cls-7" points="9.49 88.49 112.03 107.81 40.76 126.43 9.49 88.49"/>
        <polygon class="cls-3" points="111.26 107.61 35.68 125.63 74.86 140.6 112.24 133.91 111.26 107.61"/>
      </g>
    </g>
    <path class="cls-4" d="M23.5,2.77v2.93h12.27v3.2h4.78v8h32.97l.66,2.94h9.87l30.68,81.09v6.67h-3.47v10.4h-16.72l-18.5,14.4v4.54l-2.37-1.81-11.77-4.32-2.6-2.37s-1.9.2-4.11.2c-2.62,0-5.67-.27-6.52-1.47-1.57-2.21-5.14-5.16-4.91-5.96-.02,0-.05,0-.08,0-.86,0-2.66-.4-2.66-.4l-.15-2.42-5.46-11.42-.4-2.71s-4.61-2.41-6.68-4.2c-.37-.29-1.59-.99-1.82-2.83-.38-.67-1.2-1.62-3.03-1.88-1.83-.26-2.84-.33-3.73-1.96l-.9-.58-2.31-2.53h-1.6l-1.08-2.21-1.58-.45.52-2.78,2.42-2.82-.8-2.67,1.18-.7-.11-75.86h8M26.27,0h-13.56v2.78s.11,74.28.11,74.28l-1.68,1,.62,2.07.37,1.22-1.43,1.67-.48.56-.14.73-.52,2.78-.46,2.48,2.43.7.4.11.54,1.11.76,1.55h2.1l1.48,1.62.24.26.3.19.38.24c1.49,2.17,3.42,2.44,5.14,2.68l.23.03c.43.06.67.17.81.28.56,2.31,2.12,3.44,2.66,3.83l.03.02c1.62,1.37,4.29,2.93,5.87,3.81l.2,1.34.06.41.18.38,5.23,10.93.11,1.88.13,2.09,2.04.45c.27.06.88.19,1.56.3.53.69,1.23,1.43,2.03,2.27.86.9,1.84,1.91,2.39,2.69,1.3,1.83,4.01,2.64,8.78,2.64,1.21,0,2.32-.05,3.13-.11l1.71,1.56.4.37.51.19,11.37,4.17,2.03,1.56,2.67,2.05c.73.56,1.79.04,1.79-.88v-6.55l16.67-12.98h18.54v-10.4h3.47v-9.95l-.18-.47-30.68-81.09-.68-1.79h-9.57l-.17-.77-.49-2.17h-32.42V6.14h-4.78v-3.2h-12.27V0h0Z"/>
  </g>
</svg>